<svg xmlns="http://www.w3.org/2000/svg" width="350" height="310" viewBox="0 0 350 310">
    <defs>
        <style>
            .cls-1{fill:#cc4c4c;opacity:0}.cls-2{fill:#d7ffaf}.cls-3,.cls-8{fill:#0573b2}.cls-4,.cls-5,.cls-6{fill:none}.cls-4,.cls-5{stroke:#0573b2;stroke-width:3.6px}.cls-4{stroke-linecap:round}.cls-7,.cls-8{stroke:none}
        </style>
    </defs>
    <g id="Group_192" data-name="Group 192" transform="translate(-1378 -2234)">
        <path id="Rectangle_44" d="M0 0h350v310H0z" class="cls-1" data-name="Rectangle 44" transform="translate(1378 2234)"/>
        <g id="Group_135" data-name="Group 135" transform="translate(0 83)">
            <path id="Path_59" d="M116.545 14.824c19.038 25.009 7.932 63.1 10.274 108.585s77.381 98.614 33.851 134.227S-24.9 229.571 3.48 105.938 97.507-10.185 116.545 14.824z" class="cls-2" data-name="Path 59" transform="rotate(-60 2702.366 -55.045)"/>
            <g id="Group_134" data-name="Group 134" transform="translate(-73 -39)">
                <g id="trekking" transform="rotate(-9 15674.96 -8383.199)">
                    <g id="Group_101" data-name="Group 101" transform="translate(63.244 23.001)">
                        <g id="Group_100" data-name="Group 100">
                            <path id="Path_133" d="M106.969 134.985v3.833a3.837 3.837 0 0 1-3.833 3.833h-5.75a3.837 3.837 0 0 1-3.833-3.833v-28.75a3.837 3.837 0 0 1 3.833-3.833h5.75a3.833 3.833 0 0 1 3.561 2.417l.3 1.738 3.78-.642-.326-1.917a1.991 1.991 0 0 0-.082-.318 7.674 7.674 0 0 0-7.228-5.112h-5.757a7.674 7.674 0 0 0-7.667 7.667v28.75a7.674 7.674 0 0 0 7.667 7.667h5.75a7.677 7.677 0 0 0 7.669-7.667v-3.833z" class="cls-3" data-name="Path 133" transform="translate(-89.717 -102.401)"/>
                        </g>
                    </g>
                    <g id="Group_103" data-name="Group 103" transform="translate(63.245 5.75)">
                        <g id="Group_102" data-name="Group 102">
                            <path id="Path_134" d="M100.26 25.6a10.542 10.542 0 1 0 10.54 10.542A10.553 10.553 0 0 0 100.26 25.6zm0 17.25a6.708 6.708 0 1 1 6.708-6.708 6.716 6.716 0 0 1-6.708 6.708z" class="cls-3" data-name="Path 134" transform="translate(-89.718 -25.6)"/>
                        </g>
                    </g>
                    <g id="Group_105" data-name="Group 105" transform="translate(55.578 40.251)">
                        <g id="Group_104" data-name="Group 104">
                            <path id="Path_135" d="M65.168 179.2h-4.216a5.373 5.373 0 0 0-5.367 5.367V193a5.373 5.373 0 0 0 5.367 5.367h4.217a1.916 1.916 0 0 0 1.917-1.917v-15.333a1.917 1.917 0 0 0-1.918-1.917zm-1.917 15.334h-2.3A1.535 1.535 0 0 1 59.418 193v-8.434a1.535 1.535 0 0 1 1.533-1.533h2.3z" class="cls-3" data-name="Path 135" transform="translate(-55.585 -179.2)"/>
                        </g>
                    </g>
                    <g id="Group_107" data-name="Group 107" transform="translate(80.495 23)">
                        <g id="Group_106" data-name="Group 106">
                            <path id="Path_136" d="M183.768 102.4H176.1v3.833h7.667a5.757 5.757 0 0 1 5.75 5.75v32.584h-19.166V131.15h-3.833v15.334a1.916 1.916 0 0 0 1.917 1.917h23a1.915 1.915 0 0 0 1.917-1.917v-34.5a9.594 9.594 0 0 0-9.584-9.584z" class="cls-3" data-name="Path 136" transform="translate(-166.518 -102.4)"/>
                        </g>
                    </g>
                    <g id="Group_109" data-name="Group 109" transform="translate(86.245 7.159)">
                        <g id="Group_108" data-name="Group 108">
                            <path id="Path_137" d="M210.969 31.876l-3.7 1.008a5.174 5.174 0 0 1 .182 1.413v7.667a5.75 5.75 0 1 1-11.5 0v-7.685a5.16 5.16 0 0 1 .18-1.393l-3.7-1.014a8.851 8.851 0 0 0-.318 2.425v7.667a9.584 9.584 0 0 0 19.169 0v-7.65a8.967 8.967 0 0 0-.313-2.438z" class="cls-3" data-name="Path 137" transform="translate(-192.116 -31.872)"/>
                        </g>
                    </g>
                    <g id="Group_111" data-name="Group 111" transform="translate(86.245)">
                        <g id="Group_110" data-name="Group 110">
                            <path id="Path_138" d="M213.2 0h-13.415a7.674 7.674 0 0 0-7.667 7.667v7.667a1.916 1.916 0 0 0 3.272 1.355l7.105-7.105h4.956a7.674 7.674 0 0 0 7.667-7.667A1.916 1.916 0 0 0 213.2 0z" class="cls-3" data-name="Path 138" transform="translate(-192.118)"/>
                        </g>
                    </g>
                    <g id="Group_113" data-name="Group 113" transform="translate(63.246 66.226)">
                        <g id="Group_112" data-name="Group 112">
                            <path id="Path_139" d="M150.852 329.344l-17.25-34.5-3.429 1.715 16.394 32.785-4.322 2.16-15.3-27.121a5.518 5.518 0 0 0-10.392 2.609v8.5a5.745 5.745 0 0 1-3.54 5.279l-16.631 6.973-2.135-4.269 15.418-6.852a1.917 1.917 0 0 0 1.139-1.752V295.7h-3.833v17.923l-16.111 7.161a1.916 1.916 0 0 0-.935 2.609l3.833 7.667a1.917 1.917 0 0 0 2.455.91l18.281-7.665a9.571 9.571 0 0 0 5.894-8.8v-8.51a1.7 1.7 0 0 1 1.687-1.706 1.725 1.725 0 0 1 1.512.941l16.215 28.75a1.92 1.92 0 0 0 1.671.976 1.891 1.891 0 0 0 .855-.2l7.672-3.84a1.916 1.916 0 0 0 .852-2.572z" class="cls-3" data-name="Path 139" transform="translate(-89.722 -294.844)"/>
                        </g>
                    </g>
                    <g id="Group_115" data-name="Group 115" transform="translate(55.576 91.998)">
                        <g id="Group_114" data-name="Group 114">
                            <path id="Path_140" d="M73.677 424.278l-6.8-13.628a1.917 1.917 0 0 0-2.572-.859l-7.667 3.833a1.917 1.917 0 0 0-.855 2.574l6.613 13.2a5.716 5.716 0 0 0 5.146 3.189h1a5.708 5.708 0 0 0 5.144-3.193 5.771 5.771 0 0 0-.009-5.116zm-3.427 3.415a1.906 1.906 0 0 1-1.715 1.064h-1a1.905 1.905 0 0 1-1.714-1.064v-.008L60.069 416.2l4.236-2.12 5.945 11.91a1.921 1.921 0 0 1 0 1.703z" class="cls-3" data-name="Path 140" transform="translate(-55.576 -409.587)"/>
                        </g>
                    </g>
                    <g id="Group_117" data-name="Group 117" transform="translate(113.077 97.301)">
                        <g id="Group_116" data-name="Group 116">
                            <path id="Path_141" d="M332.458 436.616a6.22 6.22 0 0 0-8.32-2.77l-11.5 5.75a1.917 1.917 0 0 0-.857 2.572l3.833 7.667a1.919 1.919 0 0 0 1.717 1.06 1.891 1.891 0 0 0 .855-.2l11.5-5.75a6.224 6.224 0 0 0 2.772-8.329zm-4.487 4.9l-9.785 4.893-2.118-4.238 9.781-4.891a2.369 2.369 0 1 1 2.122 4.236z" class="cls-3" data-name="Path 141" transform="translate(-311.578 -433.195)"/>
                        </g>
                    </g>
                    <g id="Group_119" data-name="Group 119" transform="translate(70.911 13.417)">
                        <g id="Group_118" data-name="Group 118">
                            <path id="Path_142" d="M126.726 59.733a2.875 2.875 0 1 0 2.875 2.875 2.879 2.879 0 0 0-2.875-2.875zm0 3.833a.958.958 0 1 1 .958-.958.959.959 0 0 1-.958.958z" class="cls-3" data-name="Path 142" transform="translate(-123.851 -59.733)"/>
                        </g>
                    </g>
                    <g id="Group_121" data-name="Group 121" transform="translate(103.823 33.101)">
                        <g id="Group_120" data-name="Group 120">
                            <path id="Path_143" d="M299.818 150.033a7.007 7.007 0 0 0-.636-.73 6.6 6.6 0 0 0-4.686-1.932h-.025a6.6 6.6 0 0 0-4.69 1.959l-8.1 8.1-8.24-9.888-2.946 2.458 9.583 11.5a1.918 1.918 0 0 0 2.829.128l9.589-9.587a2.793 2.793 0 0 1 1.99-.832h.01a2.82 2.82 0 0 1 2.256 1.129 2.852 2.852 0 0 1-.263 3.707l-9.478 9.478a8.182 8.182 0 0 1-5.79 2.419h-.021a8.141 8.141 0 0 1-6.8-3.663l-.843-1.246-3.174 2.15.834 1.229a11.939 11.939 0 0 0 9.98 5.363h.031a12.028 12.028 0 0 0 8.508-3.552l9.468-9.469a6.708 6.708 0 0 0 .614-8.721z" class="cls-3" data-name="Path 143" transform="translate(-270.378 -147.371)"/>
                        </g>
                    </g>
                    <g id="Group_123" data-name="Group 123" transform="translate(70.911 22.989)">
                        <g id="Group_122" data-name="Group 122">
                            <path id="Path_144" d="M154.223 131.838a6.606 6.606 0 0 0-2.8-4.2l-10.687-7.686 8.65-5.28a.727.727 0 0 0 .065-.04 6.14 6.14 0 0 0 .351-.251 6.716 6.716 0 0 0-7.8-10.923l-14.116 8.809a9.092 9.092 0 0 0-.042 15.082l16.1 11.395a6.679 6.679 0 0 0 9.074-1.556c.082-.109.159-.217.228-.322a6.645 6.645 0 0 0 .977-5.028zm-4.268 3.055a2.843 2.843 0 0 1-3.835.694l-16.106-11.4a5.26 5.26 0 0 1-.05-8.7l14.12-8.811a2.84 2.84 0 0 1 1.581-.481 2.878 2.878 0 0 1 2.311 1.169 2.835 2.835 0 0 1-.512 3.973l-11.2 6.848a1.916 1.916 0 0 0-.121 3.193l13.1 9.417a2.84 2.84 0 0 1 1.225 1.811 2.936 2.936 0 0 1-.514 2.287z" class="cls-3" data-name="Path 144" transform="translate(-123.851 -102.352)"/>
                        </g>
                    </g>
                    <g id="Group_125" data-name="Group 125" transform="translate(88.401 32.468)">
                        <g id="Group_124" data-name="Group 124">
                            <path id="Rectangle_22" d="M0 0h12.217v3.833H0z" class="cls-3" data-name="Rectangle 22" transform="rotate(-61.1 9.065 5.35)"/>
                        </g>
                    </g>
                    <g id="Group_127" data-name="Group 127" transform="translate(80.693 52.812)">
                        <g id="Group_126" data-name="Group 126">
                            <path id="Rectangle_23" d="M0 0h8.571v3.833H0z" class="cls-3" data-name="Rectangle 23" transform="rotate(-63.435 6.202 3.833)"/>
                        </g>
                    </g>
                    <g id="Group_129" data-name="Group 129" transform="translate(65.161 55.584)">
                        <g id="Group_128" data-name="Group 128">
                            <path id="Rectangle_24" d="M0 0h17.25v3.833H0z" class="cls-3" data-name="Rectangle 24"/>
                        </g>
                    </g>
                    <g id="Group_133" data-name="Group 133" transform="translate(72.828 23)">
                        <g id="Group_132" data-name="Group 132">
                            <path id="Rectangle_26" d="M0 0h21.084v3.833H0z" class="cls-3" data-name="Rectangle 26"/>
                        </g>
                    </g>
                </g>
                <path id="Path_145" d="M1753.723 2329.307c-51.721-.221-49.035-1.947-56.482 10.965s-21.607 76.131-49.951 98.627-122.711 12.965-122.711 12.965" class="cls-4" data-name="Path 145"/>
                <path id="Path_146" d="M1558.655 2429.387l6.629 6.968" class="cls-4" data-name="Path 146"/>
                <path id="Path_147" d="M1558.655 2429.387l6.629 6.968" class="cls-4" data-name="Path 147" transform="rotate(-40 1575.954 2445.74)"/>
                <path id="Path_148" d="M1737.016 2292.512v24.523" class="cls-5" data-name="Path 148" transform="translate(-14 12)"/>
                <g id="Path_149" class="cls-6" data-name="Path 149">
                    <path d="M0 0h50.166l10.557 13.438L50.166 30H0z" class="cls-7" transform="translate(1693 2275)"/>
                    <path d="M3.6 3.6v22.8h44.592l8.123-12.745L48.416 3.6H3.6M0 0h50.166l10.557 13.438L50.166 30H0V0z" class="cls-8" transform="translate(1693 2275)"/>
                </g>
                <path id="Path_150" d="M1709.471 2278h9.543" class="cls-4" data-name="Path 150" transform="translate(-13 12)"/>
                <path id="Path_152" d="M1709.471 2278h9.543" class="cls-4" data-name="Path 152" transform="translate(7 7)"/>
                <path id="Path_154" d="M1708.791 2278h10.223" class="cls-4" data-name="Path 154" transform="translate(-89 47)"/>
                <path id="Path_155" d="M1709.471 2278h11.673" class="cls-4" data-name="Path 155" transform="translate(-98 39)"/>
                <path id="Path_156" d="M1709.471 2278h5.863" class="cls-4" data-name="Path 156" transform="translate(-70.32 65)"/>
                <path id="Path_157" d="M1709.471 2278h8" class="cls-4" data-name="Path 157" transform="translate(-79.457 56)"/>
                <path id="Path_151" d="M1709.471 2278h9.543" class="cls-4" data-name="Path 151" transform="translate(-1 18)"/>
                <path id="Path_153" d="M1677.484 2390.81s-56.752-99.744-89.67-90.8-55.783 106.274-72.814 96.536" class="cls-5" data-name="Path 153"/>
            </g>
        </g>
    </g>
</svg>
