<svg xmlns="http://www.w3.org/2000/svg" width="350" height="310" viewBox="0 0 350 310">
    <defs>
        <style>
            .cls-1{fill:#cc4c4c;opacity:0}.cls-2{fill:#ffafcb}.cls-3,.cls-5,.cls-6{fill:none;stroke:#0573b2;stroke-width:3.6px}.cls-3,.cls-5{stroke-linejoin:round}.cls-4{fill:#0573b2}.cls-5{stroke-linecap:round}
        </style>
    </defs>
    <g id="Group_193" data-name="Group 193" transform="translate(-986 -2234)">
        <path id="Rectangle_43" d="M0 0h350v310H0z" class="cls-1" data-name="Rectangle 43" transform="translate(986 2234)"/>
        <g id="Group_136" data-name="Group 136" transform="translate(0 83)">
            <path id="Path_59" d="M123.1 17.235c20.553 26.174 9.488 65.308 12.761 112.327s82.881 112.963 37.52 148.951S-22.563 236.441 5.246 109.276 102.55-8.938 123.1 17.235z" class="cls-2" data-name="Path 59" transform="rotate(115.98 -48.865 1560.448)"/>
            <g id="Group_98" data-name="Group 98" transform="translate(1063 2220.489)">
                <g id="Group_95" data-name="Group 95">
                    <path id="Path_115" d="M104.653 61.8L87.732 44.88V25.124A15.124 15.124 0 0 0 72.608 10H25.124A15.124 15.124 0 0 0 10 25.124V58.4a15.124 15.124 0 0 0 15.124 15.122h47.484A15.127 15.127 0 0 0 87.343 61.8z" class="cls-3" data-name="Path 115" transform="translate(1.003 -1.775)"/>
                    <path id="Path_116" d="M251.667 345.721l16.92 16.92V382.4a15.124 15.124 0 0 0 15.124 15.124H331.2a15.124 15.124 0 0 0 15.12-15.124v-33.276A15.125 15.125 0 0 0 331.2 334h-47.488a15.127 15.127 0 0 0-14.735 11.721z" class="cls-3" data-name="Path 116" transform="translate(-149.288 -203.268)"/>
                    <path id="Path_130" d="M390.545 389.328l-7.852 7.852-3.651-3.651a2.954 2.954 0 0 0-4.178 4.178l5.74 5.74a2.954 2.954 0 0 0 4.177 0l9.941-9.941a2.954 2.954 0 1 0-4.177-4.178z" class="cls-4" data-name="Path 130" transform="translate(-224.631 -232.7)"/>
                    <g id="Group_92" data-name="Group 92" transform="translate(40.871 23.512)">
                        <path id="Path_131" d="M91.888 46.958a2.893 2.893 0 0 0 2.893-2.893 4.245 4.245 0 1 1 5.179 4.142 4.859 4.859 0 0 0-3.827 4.764v1.544a2.893 2.893 0 0 0 5.787 0v-.842a10.033 10.033 0 1 0-12.925-9.608 2.894 2.894 0 0 0 2.893 2.893z" class="cls-4" data-name="Path 131" transform="translate(-88.994 -34.032)"/>
                        <path id="Path_132" d="M116.563 133.09a2.894 2.894 0 1 0 2.046.848 2.91 2.91 0 0 0-2.046-.848z" class="cls-4" data-name="Path 132" transform="translate(-106.53 -106.633)"/>
                    </g>
                    <g id="Group_93" data-name="Group 93" transform="translate(103.97)">
                        <path id="Subtraction_1" d="M93.062 47.413H0V31.258A31.328 31.328 0 0 1 29.241 0l17.29 17.29L63.82 0a31.327 31.327 0 0 1 29.242 31.259v16.153z" class="cls-5" data-name="Subtraction 1" transform="translate(0 55.52)"/>
                        <path id="Path_124" d="M365.735 56.11v23.236a20.474 20.474 0 0 1-20.474 20.474 20.474 20.474 0 0 1-20.474-20.474V61.553l20.474-5.442z" class="cls-6" data-name="Path 124" transform="translate(-298.731 -44.367)"/>
                        <path id="Path_123" d="M341.6 10h27.345v13.493A12.709 12.709 0 0 1 356.2 36.165h-31.411v-9.454A16.759 16.759 0 0 1 341.6 10z" class="cls-4" data-name="Path 123" transform="translate(-300.316 -10)"/>
                    </g>
                    <g id="Group_96" data-name="Group 96" transform="translate(0 103.096)">
                        <path id="Subtraction_1-2" d="M93.062 47.413H0V31.258A31.328 31.328 0 0 1 29.241 0l17.29 17.29L63.82 0a31.327 31.327 0 0 1 29.242 31.259v16.153z" class="cls-5" data-name="Subtraction 1" transform="translate(0 55.52)"/>
                        <path id="Path_124-2" d="M365.735 56.11v23.236a20.474 20.474 0 0 1-20.474 20.474 20.474 20.474 0 0 1-20.474-20.474V61.553l20.474-5.442z" class="cls-6" data-name="Path 124" transform="translate(-298.731 -44.367)"/>
                        <path id="Path_123-2" d="M341.6 10h27.345v13.493A12.709 12.709 0 0 1 356.2 36.165h-31.411v-9.454A16.759 16.759 0 0 1 341.6 10z" class="cls-4" data-name="Path 123" transform="translate(-300.316 -10)"/>
                    </g>
                </g>
            </g>
        </g>
    </g>
</svg>
