<svg xmlns="http://www.w3.org/2000/svg" width="350" height="310" viewBox="0 0 350 310">
    <defs>
        <style>
            .cls-1{fill:#cc4c4c;opacity:0}.cls-2,.cls-6{fill:#ffdaaf}.cls-3,.cls-4,.cls-7,.cls-9{fill:none}.cls-3,.cls-4,.cls-6,.cls-7{stroke:#0573b2}.cls-3,.cls-4{stroke-width:3.6px}.cls-4{stroke-linejoin:bevel}.cls-5{fill:#0573b2}.cls-6{stroke-width:4px}.cls-7{stroke-width:6px}.cls-8{stroke:none}
        </style>
    </defs>
    <g id="Group_194" data-name="Group 194" transform="translate(-584 -2234)">
        <path id="Rectangle_42" d="M0 0h350v310H0z" class="cls-1" data-name="Rectangle 42" transform="translate(584 2234)"/>
        <g id="Group_137" data-name="Group 137" transform="translate(0 79)">
            <path id="Path_59" d="M121.837 14.341c19.84 24.968 21.818 63.364 21.745 110.862s79.447 108.217 28.586 148.335S-32.635 246.21 6.476 114.867 102-10.627 121.837 14.341z" class="cls-2" data-name="Path 59" transform="rotate(-106 1249.25 981.338)"/>
            <g id="Group_97" data-name="Group 97" transform="translate(694.031 2230.222)">
                <path id="Path_106" d="M106.948 0H11.321C8.658 0 6.5 2.158 6.5 6.346v174.88c0 1.137 2.158 3.295 4.821 3.295h132.044c2.662 0 4.821-2.158 4.821-3.295V42.763c0-2.293-.306-3.031-.847-3.575L109 .847A2.912 2.912 0 0 0 106.948 0z" class="cls-3" data-name="Path 106" transform="translate(-6.5)"/>
                <path id="Path_107" d="M37.5.151v39.043h39.043z" class="cls-4" data-name="Path 107" transform="translate(64.645 .347)"/>
                <path id="Path_108" d="M24.324 93.949a5.29 5.29 0 0 1-3.186-1.074c-3.43-2.573-3.891-5.437-3.674-7.387.6-5.364 7.233-10.979 19.721-16.7a221.184 221.184 0 0 0 12.481-35.421c-3.288-7.157-6.485-16.442-4.155-21.889.817-1.908 1.835-3.371 3.737-4a16.177 16.177 0 0 1 3.352-.57c1.661 0 2.834.714 4.155 3.456.892 2.131 3.176 3.865-1.229 22.413a105.289 105.289 0 0 0 16.76 24.917 64.1 64.1 0 0 1 11.065-1.18c5.16 0 8.287 1.2 9.562 3.681 1.054 2.049.623 4.445-1.285 7.117a8.757 8.757 0 0 1-7.315 3.924c-4.007 0-8.672-2.531-13.875-7.529a157.88 157.88 0 0 0-29.088 9.3 93.49 93.49 0 0 1-7.85 14.006c-3.38 4.728-6.293 6.936-9.176 6.936zm8.776-16.89c-7.041 3.957-9.911 7.209-10.119 9.042-.033.3-.122 1.1 1.42 2.28.486-.155 3.353-1.463 8.699-11.322zm44.929-14.637c2.685 2.066 3.341 3.11 5.1 3.11.771 0 2.969-.033 3.987-1.453a5.216 5.216 0 0 0 .758-1.367c-.405-.214-.942-.649-3.872-.649a48.177 48.177 0 0 0-5.973.359zM53.415 40.735A234.908 234.908 0 0 1 44.6 65.658 164.636 164.636 0 0 1 66.009 59a112.789 112.789 0 0 1-12.594-18.265zm-2-27.882c-.323.109-4.382 5.789.316 10.6 3.128-6.973-.174-10.647-.316-10.601z" class="cls-5" data-name="Path 108" transform="translate(18.557 15.854)"/>
                <path id="Path_109" d="M143.365 95.015H11.321a4.821 4.821 0 0 1-4.821-4.82V39h141.686v51.195a4.821 4.821 0 0 1-4.821 4.82z" class="cls-3" data-name="Path 109" transform="translate(-6.5 89.506)"/>
                <g id="Group_89" data-name="Group 89" transform="translate(41.662 144.175)">
                    <path id="Path_110" d="M19.689 67.15h-3.945V42.924h6.968a9.78 9.78 0 0 1 3.056.493A8.31 8.31 0 0 1 28.48 44.9a7.721 7.721 0 0 1 1.94 2.383 6.6 6.6 0 0 1 .741 3.14 8.589 8.589 0 0 1-.625 3.337 6.974 6.974 0 0 1-1.743 2.515 7.854 7.854 0 0 1-2.7 1.577 10.372 10.372 0 0 1-3.484.558h-2.922v8.74zm0-21.235v9.6h3.616a4.3 4.3 0 0 0 1.431-.248 3.6 3.6 0 0 0 1.3-.805 3.937 3.937 0 0 0 .952-1.56 7.392 7.392 0 0 0 .361-2.481 6.712 6.712 0 0 0-.163-1.363 3.936 3.936 0 0 0-.673-1.479 3.984 3.984 0 0 0-1.431-1.183 5.315 5.315 0 0 0-2.433-.476h-2.96z" class="cls-5" data-name="Path 110" transform="translate(-15.744 -42.924)"/>
                    <path id="Path_111" d="M43.643 54.364A17.8 17.8 0 0 1 43 59.475a12.707 12.707 0 0 1-1.628 3.551 8.361 8.361 0 0 1-2.219 2.253 11.131 11.131 0 0 1-2.383 1.233 9.845 9.845 0 0 1-2.1.527 14.013 14.013 0 0 1-1.414.111h-9.17V42.924h7.3a13.864 13.864 0 0 1 5.374.969 11.157 11.157 0 0 1 3.847 2.58 10.59 10.59 0 0 1 2.284 3.664 12.135 12.135 0 0 1 .752 4.227zm-11.7 9.894q4.01 0 5.785-2.563t1.772-7.43a12.583 12.583 0 0 0-.361-2.991 6.4 6.4 0 0 0-1.4-2.678 7.373 7.373 0 0 0-2.811-1.94 12.1 12.1 0 0 0-4.6-.741h-2.3v18.343z" class="cls-5" data-name="Path 111" transform="translate(-4.032 -42.924)"/>
                    <path id="Path_112" d="M38.608 45.915v7.627h10.125v2.7H38.608V67.15H34.6V42.924h15.15v2.991z" class="cls-5" data-name="Path 112" transform="translate(10.733 -42.924)"/>
                </g>
                <g id="Ellipse_12" class="cls-6" data-name="Ellipse 12" transform="translate(119.969 68.778)">
                    <ellipse cx="35" cy="35.5" class="cls-8" rx="35" ry="35.5"/>
                    <ellipse cx="35" cy="35.5" class="cls-9" rx="33" ry="33.5"/>
                </g>
                <g id="Group_90" data-name="Group 90" transform="translate(148.528 89.38)">
                    <path id="Path_114" d="M6.553 0l6.553 10.484H0z" class="cls-5" data-name="Path 114" transform="rotate(180 6.552 14.609)"/>
                    <path id="Path_113" d="M613.5 2333.559v22" class="cls-7" data-name="Path 113" transform="translate(-606.947 -2333.559)"/>
                </g>
            </g>
        </g>
    </g>
</svg>
